<svg width="50" height="50" viewBox="0 0 1024 1024" xmlns="http://www.w3.org/2000/svg" fill="currentColor">
    <path d="M711.9 553c-.2-118.7 97-175.8 101.3-178.5-55.2-80.7-141.2-91.8-171.8-92.9-73.1-7.5-141.6 43.1-178.2 43.1-37.2 0-93.4-42-153.6-40.9-78.9 1.2-151.4 45.9-192.2 116.6-82.3 143-21.1 353.8 58.9 469.4 38.9 55.3 85.5 117.4 146.7 115.2 59.1-2.3 81.2-37.2 153-37.2s91.5 37.2 153.5 36.1c63.7-1.1 104.2-56 142.9-111.4 44.7-62.3 63-123 64.1-126.2-1.4-.6-123.5-47.1-124.4-187.3zm-114.4-347.5c32.8-39.5 55-94.6 49-150.2-47.3 2-104.5 31.4-138.3 70.7-30.4 35.1-57.3 91.5-50.2 145.5 53 4.1 106.7-26.9 139.5-66z"/>
</svg>
